# xmcd
#
# Track frame offsets:
#  150
#  12938
#  28700
#  43090
#  56200
#  69375
#  81563
#  92455
#  103173
#  116585
#  127300
#  139593
#  149965
#  162320
#  174910
#  185138
#  195340
#  207608
#  218785
#  230815
#  242380
#  253278
#  268120
#  282205
#  292638
#
# Disc length: 4032 seconds
#
# Revision: 0
# Processed by: cddbd v1.5.1PL2 Copyright (c) Steve Scherf et al.
# Submitted via: Collectorz.com_Music_Collector 6.9
#
DISCID=890fbe19
DTITLE=Various Artist - Street Corner Essentials - Disc 1 - The Hits
DYEAR=2001
DGENRE=Doo-Wop
TTITLE0=Coronets, The - Nadine
TTITLE1=Counts, The - Darling Dear
TTITLE2=Moonglows, The - Sincerely
TTITLE3=Marigolds, The - Rolling Stone
TTITLE4=Flamingos, The - I'll Be Home
TTITLE5=Dell-Vikings, The - Come Go With Me
TTITLE6=Tune Weavers, The - Happy, Happy Birthday Baby
TTITLE7=Gladiolas, The - Little Darlin'
TTITLE8=Andrews - Lee and The Hearts - Long Lonely Nights
TTITLE9=Monotones, The - Book Of Love
TTITLE10=Pastels, The - Been So Long
TTITLE11=Original Casuals, The - So Tough
TTITLE12=Crescendos, The - Oh Julie
TTITLE13=Fox, Norman and The Rob Roys - Tell Me Why
TTITLE14=Shirelles, The - I Met Him On A Sunday
TTITLE15=Danleers, The - One Summer Night
TTITLE16=Elegants, The - Little Star
TTITLE17=Shields, The - You Cheated
TTITLE18=Platters, The - Smoke Gets In Your Eyes
TTITLE19=Impalas, The - (Sorry) I Ran All The Way Home
TTITLE20=Phillips, Phil and The Twilights - Sea Of Love
TTITLE21=Demensions, The - Over The Rainbow
TTITLE22=Sensations, The - Let Me In
TTITLE23=Stereos, The - I Really Love You
TTITLE24=Quotations, The - Imagination
EXTD=
EXTT0=
EXTT1=
EXTT2=
EXTT3=
EXTT4=
EXTT5=
EXTT6=
EXTT7=
EXTT8=
EXTT9=
EXTT10=
EXTT11=
EXTT12=
EXTT13=
EXTT14=
EXTT15=
EXTT16=
EXTT17=
EXTT18=
EXTT19=
EXTT20=
EXTT21=
EXTT22=
EXTT23=
EXTT24=
PLAYORDER=
